<svg width="100" height="100" viewBox="0 0 100 100" fill="none" xmlns="http://www.w3.org/2000/svg">
<g clip-path="url(#clip0_16_219)">
<path d="M84.5152 93.271H78.5613L78.5607 82.6455C78.5607 71.9926 72.7162 62.199 62.1041 55.0694C60.7613 54.1663 59.927 52.2242 59.927 50.0003C59.927 47.7764 60.7613 45.8343 62.1034 44.932C72.7162 37.8013 78.5607 28.0081 78.5613 17.3549V6.72896H84.5152C86.3731 6.72896 87.8795 5.22222 87.8795 3.36431C87.8795 1.5064 86.3728 0 84.5152 0H15.4849C13.627 0 12.1206 1.50673 12.1206 3.36431C12.1206 5.22256 13.6273 6.72896 15.4849 6.72896H21.4388V17.3545C21.4388 28.0084 27.2829 37.8017 37.895 44.9313C39.2381 45.834 40.0725 47.7758 40.0725 50C40.0725 52.2242 39.2381 54.166 37.8954 55.0684C27.2829 62.1987 21.4388 71.9919 21.4388 82.6451V93.2707H15.4849C13.627 93.2707 12.1206 94.7774 12.1206 96.6354C12.1206 98.4936 13.6273 99.9997 15.4849 99.9997H84.5152C86.3731 99.9997 87.8795 98.4933 87.8795 96.6354C87.8795 94.7774 86.3728 93.271 84.5152 93.271ZM28.1674 82.6451C28.1674 71.3909 36.6135 64.036 41.6482 60.6539C44.8748 58.4852 46.8011 54.5027 46.8011 50C46.8011 45.4973 44.8748 41.5152 41.6479 39.3461C36.6135 35.9636 28.1674 28.6088 28.1674 17.3545V6.72896H71.8327L71.8321 17.3545C71.8321 28.6084 63.3856 35.9636 58.3502 39.3468C55.1243 41.5155 53.1984 45.498 53.1984 50C53.1984 54.502 55.1243 58.4842 58.3509 60.6539C63.3856 64.0367 71.8321 71.3919 71.8327 82.6451V93.2707H70.7176C67.9516 82.8737 53.8361 71.5734 52.0721 70.1943C50.8546 69.2421 49.1448 69.2428 47.9277 70.1943C46.1637 71.5731 32.0479 82.8737 29.2819 93.2707H28.1671L28.1674 82.6451ZM63.6475 93.271H36.3523C38.5691 88.0889 44.8987 81.5293 50.0001 77.1902C55.1017 81.5293 61.431 88.0889 63.6475 93.271Z" fill="#050507"/>
<path d="M49.9991 64.3145C50.8839 64.3145 51.7519 63.9546 52.3775 63.3286C53.0065 62.703 53.3634 61.8347 53.3634 60.9502C53.3634 60.0657 53.0065 59.1973 52.3775 58.5714C51.7519 57.9461 50.8839 57.5859 49.9991 57.5859C49.1142 57.5859 48.2462 57.9458 47.6206 58.5714C46.9947 59.1973 46.6348 60.0657 46.6348 60.9502C46.6348 61.8347 46.9944 62.703 47.6206 63.3286C48.2462 63.9542 49.1142 64.3145 49.9991 64.3145Z" fill="#050507"/>
<path d="M50.0001 46.471C51.8583 46.471 53.3644 44.9646 53.3644 43.1067V37.1593C53.3644 35.3013 51.858 33.7946 50.0001 33.7946C48.1421 33.7946 46.6357 35.3013 46.6357 37.1593V43.1067C46.6357 44.9646 48.1418 46.471 50.0001 46.471Z" fill="#050507"/>
</g>
<defs>
<clipPath id="clip0_16_219">
<rect width="100" height="100" fill="white"/>
</clipPath>
</defs>
</svg>
